<?xml version="1.0" encoding="UTF-8" standalone="no"?>
<!DOCTYPE svg PUBLIC "-//W3C//DTD SVG 1.1//EN"
 "http://www.w3.org/Graphics/SVG/1.1/DTD/svg11.dtd">
<!-- Generated by graphviz version 2.36.0 (20140111.2315)
 -->
<!-- Title: models_diagram Pages: 1 -->
<svg width="483pt" height="234pt"
 viewBox="0.00 0.00 483.00 234.00" xmlns="http://www.w3.org/2000/svg" xmlns:xlink="http://www.w3.org/1999/xlink">
<g id="graph0" class="graph" transform="scale(1 1) rotate(0) translate(4 230)">
<title>models_diagram</title>
<polygon fill="none" stroke="none" points="-4,4 -4,-230 479,-230 479,4 -4,4"/>
<!-- _diagram_info -->
<g id="node1" class="node"><title>_diagram_info</title>
<text text-anchor="start" x="8" y="-211.6" font-family="Times,serif" font-size="13.00">Models diagram</text>
<text text-anchor="start" x="8" y="-197.6" font-family="Times,serif" font-size="13.00">Date: Jul 21 2017 &#45; 04:22</text>
<text text-anchor="start" x="8" y="-183.6" font-family="Times,serif" font-size="13.00">Migration version: 20170719180939</text>
<text text-anchor="start" x="8" y="-169.6" font-family="Times,serif" font-size="13.00">Generated by RailRoady 1.5.3</text>
<text text-anchor="start" x="8" y="-155.6" font-family="Times,serif" font-size="13.00">http://railroady.prestonlee.com</text>
</g>
<!-- Ownership -->
<g id="node2" class="node"><title>Ownership</title>
<ellipse fill="none" stroke="black" cx="182" cy="-18" rx="49.0941" ry="18"/>
<text text-anchor="middle" x="182" y="-14.3" font-family="Times,serif" font-size="14.00">Ownership</text>
</g>
<!-- User -->
<g id="node3" class="node"><title>User</title>
<ellipse fill="none" stroke="black" cx="259" cy="-187" rx="26.949" ry="18"/>
<text text-anchor="middle" x="259" y="-183.3" font-family="Times,serif" font-size="14.00">User</text>
</g>
<!-- User&#45;&gt;Ownership -->
<g id="edge5" class="edge"><title>User&#45;&gt;Ownership</title>
<path fill="none" stroke="#19cc93" d="M240.691,-164.44C235.083,-158.635 228.632,-152.675 222,-148 188.84,-124.624 160.918,-144.141 139,-110 125.123,-88.3848 141.361,-61.5882 157.705,-42.6877"/>
<ellipse fill="none" stroke="#19cc93" cx="243.694" cy="-167.679" rx="4.00002" ry="4.00002"/>
<polygon fill="#19cc93" stroke="#19cc93" points="157.883,-42.4922 167.951,-38.1442 161.256,-38.8007 164.628,-35.1091 164.628,-35.1091 164.628,-35.1091 161.256,-38.8007 161.306,-32.074 157.883,-42.4922 157.883,-42.4922"/>
</g>
<!-- User&#45;&gt;User -->
<g id="edge3" class="edge"><title>User&#45;&gt;User</title>
<path fill="none" stroke="#5b7ebb" d="M291.304,-197.617C298.633,-196.672 304,-193.133 304,-187 304,-180.867 298.633,-177.328 291.304,-176.383"/>
<polygon fill="#5b7ebb" stroke="#5b7ebb" points="291.225,-197.616 281.312,-192.927 286.226,-197.521 281.227,-197.426 281.227,-197.426 281.227,-197.426 286.226,-197.521 281.142,-201.925 291.225,-197.616 291.225,-197.616"/>
<polygon fill="#5b7ebb" stroke="#5b7ebb" points="291.225,-176.384 281.142,-172.075 286.226,-176.479 281.227,-176.574 281.227,-176.574 281.227,-176.574 286.226,-176.479 281.312,-181.073 291.225,-176.384 291.225,-176.384"/>
<text text-anchor="middle" x="322" y="-183.3" font-family="Times,serif" font-size="14.00">clients</text>
</g>
<!-- Event -->
<g id="node4" class="node"><title>Event</title>
<ellipse fill="none" stroke="black" cx="179" cy="-92" rx="31.2965" ry="18"/>
<text text-anchor="middle" x="179" y="-88.3" font-family="Times,serif" font-size="14.00">Event</text>
</g>
<!-- User&#45;&gt;Event -->
<g id="edge4" class="edge"><title>User&#45;&gt;Event</title>
<path fill="none" stroke="#b9e931" d="M240.606,-164.617C228.178,-150.169 211.774,-131.099 199.018,-116.271"/>
<ellipse fill="none" stroke="#b9e931" cx="243.538" cy="-168.026" rx="4.00002" ry="4.00002"/>
<polygon fill="#b9e931" stroke="#b9e931" points="198.876,-116.106 195.766,-105.591 195.616,-112.316 192.355,-108.525 192.355,-108.525 192.355,-108.525 195.616,-112.316 188.944,-111.46 198.876,-116.106 198.876,-116.106"/>
</g>
<!-- Form -->
<g id="node5" class="node"><title>Form</title>
<ellipse fill="none" stroke="black" cx="259" cy="-92" rx="30.3206" ry="18"/>
<text text-anchor="middle" x="259" y="-88.3" font-family="Times,serif" font-size="14.00">Form</text>
</g>
<!-- User&#45;&gt;Form -->
<g id="edge1" class="edge"><title>User&#45;&gt;Form</title>
<path fill="none" stroke="#82c29d" d="M259,-160.562C259,-148.078 259,-133.025 259,-120.299"/>
<ellipse fill="none" stroke="#82c29d" cx="259" cy="-164.942" rx="4" ry="4"/>
<polygon fill="#82c29d" stroke="#82c29d" points="259,-120.264 263.5,-110.264 259,-115.264 259,-110.264 259,-110.264 259,-110.264 259,-115.264 254.5,-110.264 259,-120.264 259,-120.264"/>
</g>
<!-- Admin -->
<g id="node6" class="node"><title>Admin</title>
<ellipse fill="none" stroke="black" cx="343" cy="-92" rx="35.6194" ry="18"/>
<text text-anchor="middle" x="343" y="-88.3" font-family="Times,serif" font-size="14.00">Admin</text>
</g>
<!-- User&#45;&gt;Admin -->
<g id="edge6" class="edge"><title>User&#45;&gt;Admin</title>
<path fill="none" stroke="#4b158c" d="M279.513,-163.289C292.378,-149.046 308.924,-130.727 321.899,-116.362"/>
<polygon fill="#4b158c" stroke="#4b158c" points="279.199,-163.637 269.157,-168.042 275.848,-167.347 272.496,-171.058 272.496,-171.058 272.496,-171.058 275.848,-167.347 275.836,-174.074 279.199,-163.637 279.199,-163.637"/>
<polygon fill="#4b158c" stroke="#4b158c" points="321.991,-116.26 332.034,-111.855 325.343,-112.549 328.694,-108.839 328.694,-108.839 328.694,-108.839 325.343,-112.549 325.355,-105.822 321.991,-116.26 321.991,-116.26"/>
</g>
<!-- Referral -->
<g id="node7" class="node"><title>Referral</title>
<ellipse fill="none" stroke="black" cx="436" cy="-92" rx="39.4691" ry="18"/>
<text text-anchor="middle" x="436" y="-88.3" font-family="Times,serif" font-size="14.00">Referral</text>
</g>
<!-- User&#45;&gt;Referral -->
<g id="edge2" class="edge"><title>User&#45;&gt;Referral</title>
<path fill="none" stroke="#effd04" d="M286.995,-171.291C318.265,-154.861 368.87,-128.272 402.289,-110.712"/>
<ellipse fill="none" stroke="#effd04" cx="283.192" cy="-173.289" rx="4.00002" ry="4.00002"/>
<polygon fill="#effd04" stroke="#effd04" points="402.377,-110.666 413.323,-109.999 406.803,-108.341 411.23,-106.015 411.23,-106.015 411.23,-106.015 406.803,-108.341 409.136,-102.031 402.377,-110.666 402.377,-110.666"/>
</g>
<!-- Admin&#45;&gt;Ownership -->
<g id="edge7" class="edge"><title>Admin&#45;&gt;Ownership</title>
<path fill="none" stroke="#656572" d="M309.731,-76.122C283.975,-64.6039 248.24,-48.6227 221.115,-36.4923"/>
<ellipse fill="none" stroke="#656572" cx="313.481" cy="-77.799" rx="4.00002" ry="4.00002"/>
<polygon fill="#656572" stroke="#656572" points="221.039,-36.4584 213.747,-28.2679 216.474,-34.4171 211.91,-32.3759 211.91,-32.3759 211.91,-32.3759 216.474,-34.4171 210.073,-36.4838 221.039,-36.4584 221.039,-36.4584"/>
</g>
</g>
</svg>
