<?xml version="1.0" encoding="UTF-8" standalone="no"?>
<!DOCTYPE svg PUBLIC "-//W3C//DTD SVG 1.1//EN"
 "http://www.w3.org/Graphics/SVG/1.1/DTD/svg11.dtd">
<!-- Generated by graphviz version 2.36.0 (20140111.2315)
 -->
<!-- Title: models_diagram Pages: 1 -->
<svg width="806pt" height="1006pt"
 viewBox="0.00 0.00 806.00 1006.00" xmlns="http://www.w3.org/2000/svg" xmlns:xlink="http://www.w3.org/1999/xlink">
<g id="graph0" class="graph" transform="scale(1 1) rotate(0) translate(4 1002)">
<title>models_diagram</title>
<polygon fill="none" stroke="none" points="-4,4 -4,-1002 802,-1002 802,4 -4,4"/>
<!-- _diagram_info -->
<g id="node1" class="node"><title>_diagram_info</title>
<text text-anchor="start" x="8" y="-796.6" font-family="Times,serif" font-size="13.00">Models diagram</text>
<text text-anchor="start" x="8" y="-782.6" font-family="Times,serif" font-size="13.00">Date: Jul 21 2017 &#45; 04:22</text>
<text text-anchor="start" x="8" y="-768.6" font-family="Times,serif" font-size="13.00">Migration version: 20170719180939</text>
<text text-anchor="start" x="8" y="-754.6" font-family="Times,serif" font-size="13.00">Generated by RailRoady 1.5.3</text>
<text text-anchor="start" x="8" y="-740.6" font-family="Times,serif" font-size="13.00">http://railroady.prestonlee.com</text>
</g>
<!-- Ownership -->
<g id="node2" class="node"><title>Ownership</title>
<path fill="none" stroke="black" d="M139.5,-1C139.5,-1 228.5,-1 228.5,-1 234.5,-1 240.5,-7 240.5,-13 240.5,-13 240.5,-65 240.5,-65 240.5,-71 234.5,-77 228.5,-77 228.5,-77 139.5,-77 139.5,-77 133.5,-77 127.5,-71 127.5,-65 127.5,-65 127.5,-13 127.5,-13 127.5,-7 133.5,-1 139.5,-1"/>
<text text-anchor="middle" x="184" y="-61.8" font-family="Times,serif" font-size="14.00">Ownership</text>
<polyline fill="none" stroke="black" points="127.5,-54 240.5,-54 "/>
<text text-anchor="start" x="135.5" y="-38.8" font-family="Times,serif" font-size="14.00">id :INTEGER</text>
<text text-anchor="start" x="135.5" y="-23.8" font-family="Times,serif" font-size="14.00">admin_id :integer</text>
<text text-anchor="start" x="135.5" y="-8.8" font-family="Times,serif" font-size="14.00">user_id :integer</text>
</g>
<!-- User -->
<g id="node3" class="node"><title>User</title>
<path fill="none" stroke="black" d="M244,-546.5C244,-546.5 420,-546.5 420,-546.5 426,-546.5 432,-552.5 432,-558.5 432,-558.5 432,-985.5 432,-985.5 432,-991.5 426,-997.5 420,-997.5 420,-997.5 244,-997.5 244,-997.5 238,-997.5 232,-991.5 232,-985.5 232,-985.5 232,-558.5 232,-558.5 232,-552.5 238,-546.5 244,-546.5"/>
<text text-anchor="middle" x="332" y="-982.3" font-family="Times,serif" font-size="14.00">User</text>
<polyline fill="none" stroke="black" points="232,-974.5 432,-974.5 "/>
<text text-anchor="start" x="240" y="-959.3" font-family="Times,serif" font-size="14.00">id :INTEGER</text>
<text text-anchor="start" x="240" y="-944.3" font-family="Times,serif" font-size="14.00">email :varchar</text>
<text text-anchor="start" x="240" y="-929.3" font-family="Times,serif" font-size="14.00">encrypted_password :varchar</text>
<text text-anchor="start" x="240" y="-914.3" font-family="Times,serif" font-size="14.00">reset_password_token :varchar</text>
<text text-anchor="start" x="240" y="-899.3" font-family="Times,serif" font-size="14.00">reset_password_sent_at :datetime</text>
<text text-anchor="start" x="240" y="-884.3" font-family="Times,serif" font-size="14.00">remember_created_at :datetime</text>
<text text-anchor="start" x="240" y="-869.3" font-family="Times,serif" font-size="14.00">sign_in_count :integer</text>
<text text-anchor="start" x="240" y="-854.3" font-family="Times,serif" font-size="14.00">current_sign_in_at :datetime</text>
<text text-anchor="start" x="240" y="-839.3" font-family="Times,serif" font-size="14.00">last_sign_in_at :datetime</text>
<text text-anchor="start" x="240" y="-824.3" font-family="Times,serif" font-size="14.00">current_sign_in_ip :varchar</text>
<text text-anchor="start" x="240" y="-809.3" font-family="Times,serif" font-size="14.00">last_sign_in_ip :varchar</text>
<text text-anchor="start" x="240" y="-794.3" font-family="Times,serif" font-size="14.00">created_at :datetime</text>
<text text-anchor="start" x="240" y="-779.3" font-family="Times,serif" font-size="14.00">updated_at :datetime</text>
<text text-anchor="start" x="240" y="-764.3" font-family="Times,serif" font-size="14.00">first_name :varchar</text>
<text text-anchor="start" x="240" y="-749.3" font-family="Times,serif" font-size="14.00">last_name :varchar</text>
<text text-anchor="start" x="240" y="-734.3" font-family="Times,serif" font-size="14.00">invitation_token :varchar</text>
<text text-anchor="start" x="240" y="-719.3" font-family="Times,serif" font-size="14.00">invitation_created_at :datetime</text>
<text text-anchor="start" x="240" y="-704.3" font-family="Times,serif" font-size="14.00">invitation_sent_at :datetime</text>
<text text-anchor="start" x="240" y="-689.3" font-family="Times,serif" font-size="14.00">invitation_accepted_at :datetime</text>
<text text-anchor="start" x="240" y="-674.3" font-family="Times,serif" font-size="14.00">invitation_limit :integer</text>
<text text-anchor="start" x="240" y="-659.3" font-family="Times,serif" font-size="14.00">invited_by_id :integer</text>
<text text-anchor="start" x="240" y="-644.3" font-family="Times,serif" font-size="14.00">invited_by_type :varchar</text>
<text text-anchor="start" x="240" y="-629.3" font-family="Times,serif" font-size="14.00">invitations_count :integer</text>
<text text-anchor="start" x="240" y="-614.3" font-family="Times,serif" font-size="14.00">role :integer</text>
<text text-anchor="start" x="240" y="-599.3" font-family="Times,serif" font-size="14.00">case_document :varchar</text>
<text text-anchor="start" x="240" y="-584.3" font-family="Times,serif" font-size="14.00">address :varchar</text>
<text text-anchor="start" x="240" y="-569.3" font-family="Times,serif" font-size="14.00">phone :varchar</text>
<text text-anchor="start" x="240" y="-554.3" font-family="Times,serif" font-size="14.00">skype :varchar</text>
</g>
<!-- User&#45;&gt;Ownership -->
<g id="edge5" class="edge"><title>User&#45;&gt;Ownership</title>
<path fill="none" stroke="#5bab47" d="M225.752,-549.143C224.515,-548.078 223.264,-547.03 222,-546 169.352,-503.103 115.623,-561.66 74,-508 -32.782,-370.337 -6.93069,-270.284 74,-116 83.9149,-97.0985 100.899,-81.9701 118.595,-70.3429"/>
<ellipse fill="none" stroke="#5bab47" cx="228.855" cy="-551.936" rx="4.00002" ry="4.00002"/>
<polygon fill="#5bab47" stroke="#5bab47" points="118.823,-70.2011 129.69,-68.735 123.067,-67.5581 127.311,-64.9151 127.311,-64.9151 127.311,-64.9151 123.067,-67.5581 124.933,-61.0951 118.823,-70.2011 118.823,-70.2011"/>
</g>
<!-- User&#45;&gt;User -->
<g id="edge3" class="edge"><title>User&#45;&gt;User</title>
<path fill="none" stroke="#972eac" d="M440.005,-803.199C446.261,-795.699 450,-785.299 450,-772 450,-758.701 446.261,-748.301 440.005,-740.801"/>
<polygon fill="#972eac" stroke="#972eac" points="439.695,-803.481 429.264,-806.866 435.991,-806.84 432.288,-810.199 432.288,-810.199 432.288,-810.199 435.991,-806.84 435.311,-813.533 439.695,-803.481 439.695,-803.481"/>
<polygon fill="#972eac" stroke="#972eac" points="439.695,-740.519 435.311,-730.467 435.991,-737.16 432.288,-733.801 432.288,-733.801 432.288,-733.801 435.991,-737.16 429.264,-737.134 439.695,-740.519 439.695,-740.519"/>
<text text-anchor="middle" x="468" y="-768.3" font-family="Times,serif" font-size="14.00">clients</text>
</g>
<!-- Event -->
<g id="node4" class="node"><title>Event</title>
<path fill="none" stroke="black" d="M95.5,-259C95.5,-259 202.5,-259 202.5,-259 208.5,-259 214.5,-265 214.5,-271 214.5,-271 214.5,-353 214.5,-353 214.5,-359 208.5,-365 202.5,-365 202.5,-365 95.5,-365 95.5,-365 89.5,-365 83.5,-359 83.5,-353 83.5,-353 83.5,-271 83.5,-271 83.5,-265 89.5,-259 95.5,-259"/>
<text text-anchor="middle" x="149" y="-349.8" font-family="Times,serif" font-size="14.00">Event</text>
<polyline fill="none" stroke="black" points="83.5,-342 214.5,-342 "/>
<text text-anchor="start" x="91.5" y="-326.8" font-family="Times,serif" font-size="14.00">id :INTEGER</text>
<text text-anchor="start" x="91.5" y="-311.8" font-family="Times,serif" font-size="14.00">user_id :integer</text>
<text text-anchor="start" x="91.5" y="-296.8" font-family="Times,serif" font-size="14.00">message :varchar</text>
<text text-anchor="start" x="91.5" y="-281.8" font-family="Times,serif" font-size="14.00">created_at :datetime</text>
<text text-anchor="start" x="91.5" y="-266.8" font-family="Times,serif" font-size="14.00">updated_at :datetime</text>
</g>
<!-- User&#45;&gt;Event -->
<g id="edge4" class="edge"><title>User&#45;&gt;Event</title>
<path fill="none" stroke="#d444bd" d="M236.27,-538.684C232.105,-528.322 227.999,-518.058 224,-508 206.334,-463.566 186.974,-413.186 172.35,-374.766"/>
<ellipse fill="none" stroke="#d444bd" cx="237.82" cy="-542.534" rx="4.00001" ry="4.00001"/>
<polygon fill="#d444bd" stroke="#d444bd" points="172.292,-374.614 172.944,-363.667 170.515,-369.94 168.737,-365.266 168.737,-365.266 168.737,-365.266 170.515,-369.94 164.531,-366.866 172.292,-374.614 172.292,-374.614"/>
</g>
<!-- Form -->
<g id="node5" class="node"><title>Form</title>
<path fill="none" stroke="black" d="M245,-221.5C245,-221.5 419,-221.5 419,-221.5 425,-221.5 431,-227.5 431,-233.5 431,-233.5 431,-390.5 431,-390.5 431,-396.5 425,-402.5 419,-402.5 419,-402.5 245,-402.5 245,-402.5 239,-402.5 233,-396.5 233,-390.5 233,-390.5 233,-233.5 233,-233.5 233,-227.5 239,-221.5 245,-221.5"/>
<text text-anchor="middle" x="332" y="-387.3" font-family="Times,serif" font-size="14.00">Form</text>
<polyline fill="none" stroke="black" points="233,-379.5 431,-379.5 "/>
<text text-anchor="start" x="241" y="-364.3" font-family="Times,serif" font-size="14.00">id :INTEGER</text>
<text text-anchor="start" x="241" y="-349.3" font-family="Times,serif" font-size="14.00">user_id :integer</text>
<text text-anchor="start" x="241" y="-334.3" font-family="Times,serif" font-size="14.00">form_type :integer</text>
<text text-anchor="start" x="241" y="-319.3" font-family="Times,serif" font-size="14.00">status :varchar</text>
<text text-anchor="start" x="241" y="-304.3" font-family="Times,serif" font-size="14.00">first_name :varchar</text>
<text text-anchor="start" x="241" y="-289.3" font-family="Times,serif" font-size="14.00">last_name :varchar</text>
<text text-anchor="start" x="241" y="-274.3" font-family="Times,serif" font-size="14.00">created_at :datetime</text>
<text text-anchor="start" x="241" y="-259.3" font-family="Times,serif" font-size="14.00">updated_at :datetime</text>
<text text-anchor="start" x="241" y="-244.3" font-family="Times,serif" font-size="14.00">encrypted_form_json :varchar</text>
<text text-anchor="start" x="241" y="-229.3" font-family="Times,serif" font-size="14.00">encrypted_form_json_iv :varchar</text>
</g>
<!-- User&#45;&gt;Form -->
<g id="edge1" class="edge"><title>User&#45;&gt;Form</title>
<path fill="none" stroke="#d830bf" d="M332,-538.3C332,-494.184 332,-450.251 332,-413.053"/>
<ellipse fill="none" stroke="#d830bf" cx="332" cy="-542.361" rx="4" ry="4"/>
<polygon fill="#d830bf" stroke="#d830bf" points="332,-412.745 336.5,-402.745 332,-407.745 332,-402.745 332,-402.745 332,-402.745 332,-407.745 327.5,-402.745 332,-412.745 332,-412.745"/>
</g>
<!-- Admin -->
<g id="node6" class="node"><title>Admin</title>
<path fill="none" stroke="black" d="M461,-116.5C461,-116.5 637,-116.5 637,-116.5 643,-116.5 649,-122.5 649,-128.5 649,-128.5 649,-495.5 649,-495.5 649,-501.5 643,-507.5 637,-507.5 637,-507.5 461,-507.5 461,-507.5 455,-507.5 449,-501.5 449,-495.5 449,-495.5 449,-128.5 449,-128.5 449,-122.5 455,-116.5 461,-116.5"/>
<text text-anchor="middle" x="549" y="-492.3" font-family="Times,serif" font-size="14.00">Admin</text>
<polyline fill="none" stroke="black" points="449,-484.5 649,-484.5 "/>
<text text-anchor="start" x="457" y="-469.3" font-family="Times,serif" font-size="14.00">id :INTEGER</text>
<text text-anchor="start" x="457" y="-454.3" font-family="Times,serif" font-size="14.00">email :varchar</text>
<text text-anchor="start" x="457" y="-439.3" font-family="Times,serif" font-size="14.00">encrypted_password :varchar</text>
<text text-anchor="start" x="457" y="-424.3" font-family="Times,serif" font-size="14.00">reset_password_token :varchar</text>
<text text-anchor="start" x="457" y="-409.3" font-family="Times,serif" font-size="14.00">reset_password_sent_at :datetime</text>
<text text-anchor="start" x="457" y="-394.3" font-family="Times,serif" font-size="14.00">remember_created_at :datetime</text>
<text text-anchor="start" x="457" y="-379.3" font-family="Times,serif" font-size="14.00">sign_in_count :integer</text>
<text text-anchor="start" x="457" y="-364.3" font-family="Times,serif" font-size="14.00">current_sign_in_at :datetime</text>
<text text-anchor="start" x="457" y="-349.3" font-family="Times,serif" font-size="14.00">last_sign_in_at :datetime</text>
<text text-anchor="start" x="457" y="-334.3" font-family="Times,serif" font-size="14.00">current_sign_in_ip :varchar</text>
<text text-anchor="start" x="457" y="-319.3" font-family="Times,serif" font-size="14.00">last_sign_in_ip :varchar</text>
<text text-anchor="start" x="457" y="-304.3" font-family="Times,serif" font-size="14.00">created_at :datetime</text>
<text text-anchor="start" x="457" y="-289.3" font-family="Times,serif" font-size="14.00">updated_at :datetime</text>
<text text-anchor="start" x="457" y="-274.3" font-family="Times,serif" font-size="14.00">first_name :varchar</text>
<text text-anchor="start" x="457" y="-259.3" font-family="Times,serif" font-size="14.00">last_name :varchar</text>
<text text-anchor="start" x="457" y="-244.3" font-family="Times,serif" font-size="14.00">invitation_token :varchar</text>
<text text-anchor="start" x="457" y="-229.3" font-family="Times,serif" font-size="14.00">invitation_created_at :datetime</text>
<text text-anchor="start" x="457" y="-214.3" font-family="Times,serif" font-size="14.00">invitation_sent_at :datetime</text>
<text text-anchor="start" x="457" y="-199.3" font-family="Times,serif" font-size="14.00">invitation_accepted_at :datetime</text>
<text text-anchor="start" x="457" y="-184.3" font-family="Times,serif" font-size="14.00">invitation_limit :integer</text>
<text text-anchor="start" x="457" y="-169.3" font-family="Times,serif" font-size="14.00">invited_by_id :integer</text>
<text text-anchor="start" x="457" y="-154.3" font-family="Times,serif" font-size="14.00">invited_by_type :varchar</text>
<text text-anchor="start" x="457" y="-139.3" font-family="Times,serif" font-size="14.00">invitations_count :integer</text>
<text text-anchor="start" x="457" y="-124.3" font-family="Times,serif" font-size="14.00">role :integer</text>
</g>
<!-- User&#45;&gt;Admin -->
<g id="edge6" class="edge"><title>User&#45;&gt;Admin</title>
<path fill="none" stroke="#633174" d="M436.523,-550.395C441.805,-539.247 447.099,-528.072 452.356,-516.977"/>
<polygon fill="#633174" stroke="#633174" points="436.366,-550.726 428.017,-557.836 434.225,-555.244 432.084,-559.763 432.084,-559.763 432.084,-559.763 434.225,-555.244 436.151,-561.69 436.366,-550.726 436.366,-550.726"/>
<polygon fill="#633174" stroke="#633174" points="452.48,-516.715 460.828,-509.605 454.621,-512.197 456.762,-507.678 456.762,-507.678 456.762,-507.678 454.621,-512.197 452.695,-505.751 452.48,-516.715 452.48,-516.715"/>
</g>
<!-- Referral -->
<g id="node7" class="node"><title>Referral</title>
<path fill="none" stroke="black" d="M679.5,-259C679.5,-259 786.5,-259 786.5,-259 792.5,-259 798.5,-265 798.5,-271 798.5,-271 798.5,-353 798.5,-353 798.5,-359 792.5,-365 786.5,-365 786.5,-365 679.5,-365 679.5,-365 673.5,-365 667.5,-359 667.5,-353 667.5,-353 667.5,-271 667.5,-271 667.5,-265 673.5,-259 679.5,-259"/>
<text text-anchor="middle" x="733" y="-349.8" font-family="Times,serif" font-size="14.00">Referral</text>
<polyline fill="none" stroke="black" points="667.5,-342 798.5,-342 "/>
<text text-anchor="start" x="675.5" y="-326.8" font-family="Times,serif" font-size="14.00">id :INTEGER</text>
<text text-anchor="start" x="675.5" y="-311.8" font-family="Times,serif" font-size="14.00">created_at :datetime</text>
<text text-anchor="start" x="675.5" y="-296.8" font-family="Times,serif" font-size="14.00">updated_at :datetime</text>
<text text-anchor="start" x="675.5" y="-281.8" font-family="Times,serif" font-size="14.00">user_id :integer</text>
<text text-anchor="start" x="675.5" y="-266.8" font-family="Times,serif" font-size="14.00">client_id :integer</text>
</g>
<!-- User&#45;&gt;Referral -->
<g id="edge2" class="edge"><title>User&#45;&gt;Referral</title>
<path fill="none" stroke="#765a76" d="M438.947,-706.128C509.369,-658.756 599.101,-588.856 658,-508 687.101,-468.05 706.472,-415.381 718.225,-374.852"/>
<ellipse fill="none" stroke="#765a76" cx="435.52" cy="-708.419" rx="4.00002" ry="4.00002"/>
<polygon fill="#765a76" stroke="#765a76" points="718.265,-374.713 725.31,-366.31 719.622,-369.901 720.979,-365.088 720.979,-365.088 720.979,-365.088 719.622,-369.901 716.648,-363.867 718.265,-374.713 718.265,-374.713"/>
</g>
<!-- Admin&#45;&gt;Ownership -->
<g id="edge7" class="edge"><title>Admin&#45;&gt;Ownership</title>
<path fill="none" stroke="#adf440" d="M442.818,-118.303C441.886,-117.525 440.946,-116.757 440,-116 385.474,-72.3708 306.488,-53.7722 250.701,-45.8532"/>
<ellipse fill="none" stroke="#adf440" cx="445.86" cy="-120.954" rx="4.00002" ry="4.00002"/>
<polygon fill="#adf440" stroke="#adf440" points="250.477,-45.8233 241.163,-40.0351 245.521,-45.1593 240.565,-44.4952 240.565,-44.4952 240.565,-44.4952 245.521,-45.1593 239.968,-48.9554 250.477,-45.8233 250.477,-45.8233"/>
</g>
</g>
</svg>
